<?xml version="1.0" standalone="no"?>
<!DOCTYPE svg PUBLIC "-//W3C//DTD SVG 20010904//EN"
 "http://www.w3.org/TR/2001/REC-SVG-20010904/DTD/svg10.dtd">
<svg version="1.0" xmlns="http://www.w3.org/2000/svg"
 width="900.000000pt" height="900.000000pt" viewBox="0 0 900.000000 900.000000"
 preserveAspectRatio="xMidYMid meet">
<metadata>
Created by potrace 1.14, written by Peter Selinger 2001-2017
</metadata>
<g transform="translate(0.000000,900.000000) scale(0.100000,-0.100000)"
fill="#000000" stroke="none">
<path d="M4143 8753 c-51 -2 -93 -8 -93 -12 0 -5 -49 -12 -110 -16 -60 -3
-112 -10 -115 -15 -3 -4 -41 -11 -85 -15 -44 -4 -80 -11 -80 -15 0 -4 -29 -11
-65 -15 -36 -3 -67 -10 -70 -15 -2 -4 -29 -11 -60 -15 -30 -3 -57 -10 -60 -15
-3 -4 -28 -11 -55 -15 -28 -4 -50 -10 -50 -15 0 -4 -20 -11 -45 -14 -24 -4
-47 -11 -50 -17 -4 -5 -16 -9 -28 -9 -12 0 -35 -7 -50 -15 -15 -8 -43 -17 -62
-21 -19 -3 -35 -10 -35 -14 0 -5 -18 -11 -40 -15 -22 -4 -40 -10 -40 -15 0 -4
-16 -11 -35 -14 -19 -4 -35 -11 -35 -16 0 -6 -7 -10 -16 -10 -14 0 -45 -12
-141 -56 -17 -8 -36 -14 -42 -14 -6 0 -11 -4 -11 -9 0 -5 -13 -12 -30 -16 -16
-4 -30 -10 -30 -15 0 -4 -12 -11 -27 -15 -15 -3 -30 -10 -33 -13 -3 -4 -27
-18 -55 -32 -27 -14 -52 -27 -55 -30 -3 -3 -16 -11 -30 -18 -27 -13 -62 -34
-70 -42 -3 -3 -26 -16 -52 -30 -27 -13 -48 -28 -48 -32 0 -3 -10 -10 -22 -14
-13 -4 -25 -9 -28 -13 -10 -13 -70 -51 -79 -51 -5 0 -11 -3 -13 -7 -1 -5 -29
-26 -60 -47 -32 -22 -58 -43 -58 -48 0 -4 -6 -8 -14 -8 -7 0 -25 -10 -38 -22
-40 -36 -109 -92 -122 -100 -18 -11 -73 -59 -141 -123 -35 -33 -79 -73 -98
-90 -69 -59 -133 -122 -161 -159 -16 -21 -53 -62 -82 -91 -30 -29 -54 -56 -54
-60 0 -5 -16 -23 -35 -42 -19 -19 -35 -39 -35 -46 -1 -7 -14 -23 -30 -37 -17
-13 -30 -28 -30 -33 0 -6 -13 -23 -30 -39 -16 -15 -30 -34 -30 -42 0 -8 -7
-16 -15 -20 -8 -3 -15 -12 -15 -21 0 -8 -3 -15 -7 -15 -5 0 -19 -18 -33 -40
-13 -22 -28 -40 -32 -40 -4 0 -8 -5 -8 -10 0 -9 -36 -66 -50 -80 -3 -3 -11
-16 -18 -30 -15 -32 -33 -60 -49 -78 -7 -7 -13 -20 -13 -28 0 -8 -4 -14 -8
-14 -4 0 -13 -12 -19 -27 -13 -30 -34 -65 -44 -73 -4 -3 -10 -16 -14 -30 -4
-14 -10 -27 -14 -30 -12 -10 -81 -150 -81 -165 0 -8 -4 -15 -9 -15 -5 0 -12
-13 -16 -30 -4 -16 -11 -30 -15 -30 -5 0 -12 -16 -16 -35 -3 -19 -10 -35 -14
-35 -4 0 -11 -16 -14 -35 -4 -19 -11 -35 -16 -35 -6 0 -10 -8 -10 -17 0 -10
-6 -30 -14 -45 -8 -15 -17 -40 -21 -57 -4 -17 -10 -31 -15 -31 -5 0 -12 -20
-16 -45 -3 -25 -10 -45 -15 -45 -4 0 -11 -20 -15 -45 -3 -25 -10 -45 -15 -45
-4 0 -11 -20 -15 -45 -3 -25 -10 -48 -14 -50 -5 -3 -12 -30 -15 -60 -4 -30
-11 -55 -15 -55 -4 0 -11 -25 -15 -55 -3 -30 -10 -57 -15 -60 -5 -3 -12 -34
-15 -70 -4 -36 -11 -68 -16 -70 -4 -3 -11 -41 -15 -85 -3 -44 -10 -80 -14 -80
-5 0 -11 -53 -15 -117 -4 -65 -12 -124 -19 -132 -16 -20 -16 -812 0 -832 7 -8
15 -65 19 -126 4 -62 11 -113 15 -113 4 0 11 -36 14 -80 4 -44 11 -82 15 -85
5 -2 12 -34 16 -70 3 -36 10 -67 15 -70 4 -2 11 -29 15 -60 3 -30 10 -57 15
-60 4 -3 11 -28 15 -55 4 -27 10 -52 15 -55 4 -3 11 -25 14 -50 4 -25 11 -45
15 -45 5 0 12 -20 15 -45 4 -25 11 -45 15 -45 5 0 12 -20 15 -45 4 -25 11 -45
16 -45 4 0 11 -18 15 -40 4 -22 10 -40 15 -40 4 0 11 -16 14 -35 4 -19 11 -35
16 -35 6 0 10 -8 10 -17 1 -10 9 -36 20 -58 11 -22 19 -46 20 -52 0 -7 5 -13
10 -13 6 0 10 -6 10 -12 1 -7 9 -31 20 -53 11 -22 19 -46 20 -52 0 -7 4 -13 9
-13 5 0 12 -14 16 -30 4 -17 10 -30 15 -30 4 0 11 -11 14 -25 4 -14 10 -25 15
-25 5 0 12 -14 16 -30 4 -17 10 -30 14 -30 3 0 12 -12 19 -27 23 -51 37 -73
44 -73 5 0 8 -6 8 -14 0 -8 6 -21 13 -28 7 -7 18 -24 25 -38 13 -27 34 -62 42
-70 14 -14 50 -70 50 -79 0 -5 3 -11 8 -13 4 -1 25 -29 46 -61 22 -31 43 -57
48 -57 4 0 8 -6 8 -14 0 -7 10 -24 23 -38 29 -33 80 -96 89 -111 9 -15 65 -80
119 -137 25 -28 57 -65 70 -85 13 -19 28 -35 32 -35 8 0 122 -113 129 -127 1
-5 25 -26 52 -48 27 -22 71 -60 96 -85 52 -50 124 -110 148 -124 9 -5 25 -19
36 -31 12 -12 29 -24 39 -28 9 -3 17 -11 17 -16 0 -5 10 -13 22 -16 11 -4 31
-18 43 -31 12 -13 26 -24 30 -24 4 0 17 -8 30 -18 12 -9 33 -24 45 -32 12 -8
28 -20 34 -26 7 -6 22 -15 34 -18 12 -4 22 -12 22 -17 0 -5 5 -9 10 -9 10 0
69 -38 80 -51 3 -4 16 -10 30 -14 13 -4 30 -13 37 -19 31 -27 41 -34 63 -41
13 -4 30 -14 38 -21 7 -8 20 -14 28 -14 8 0 14 -4 14 -9 0 -5 13 -12 30 -16
17 -4 30 -10 30 -15 0 -5 14 -11 30 -15 17 -4 30 -10 30 -15 0 -5 14 -11 30
-15 17 -4 30 -10 30 -15 0 -5 14 -11 30 -15 17 -4 30 -11 30 -15 0 -5 16 -12
35 -16 19 -3 35 -10 35 -14 0 -5 14 -12 32 -15 18 -4 39 -11 48 -16 29 -16
109 -49 118 -49 5 0 23 -7 38 -15 16 -8 37 -15 46 -15 9 0 19 -4 22 -9 4 -5
24 -12 46 -16 22 -4 42 -11 45 -15 3 -5 26 -12 50 -16 25 -3 48 -10 50 -15 3
-4 26 -11 50 -15 25 -3 48 -10 50 -14 3 -5 30 -12 60 -15 31 -4 57 -11 60 -15
3 -5 33 -11 67 -15 35 -4 68 -11 73 -15 6 -4 39 -11 75 -14 36 -4 74 -11 85
-16 19 -9 83 -16 340 -41 142 -13 793 -6 820 9 11 6 64 14 118 17 53 4 97 10
97 15 0 4 36 11 80 14 44 4 82 11 85 15 2 5 34 12 70 16 36 3 65 10 65 15 0 4
27 11 60 15 33 4 60 10 60 15 0 4 22 10 50 14 27 4 52 11 55 15 3 5 24 12 48
16 23 4 47 11 52 15 6 4 25 11 43 15 18 4 45 13 60 21 15 8 35 14 44 14 9 0
19 4 22 9 3 5 22 12 41 15 19 4 35 11 35 16 0 4 18 11 40 15 22 4 40 10 40 15
0 4 16 11 35 14 19 4 35 11 35 16 0 4 14 11 30 15 17 4 30 11 30 16 0 5 6 9
13 9 6 1 30 9 52 20 22 11 46 19 53 20 6 0 12 3 12 8 0 4 25 18 55 32 30 14
55 28 55 31 0 4 12 10 27 14 15 3 30 10 33 13 3 4 27 18 55 32 27 14 55 30 62
35 7 6 19 16 27 22 8 7 20 13 25 13 5 0 16 6 23 12 18 16 46 35 78 50 14 7 36
23 50 36 14 12 33 25 43 28 9 3 17 10 17 15 0 5 7 9 15 9 9 0 18 7 21 15 4 8
12 15 20 15 8 0 22 9 31 20 10 11 22 20 27 20 5 0 19 11 32 25 13 14 27 25 32
25 9 0 51 35 128 108 25 23 46 42 47 42 14 0 407 387 407 401 0 4 19 28 43 53
72 77 107 119 107 128 0 5 11 19 25 32 14 13 25 27 25 32 0 5 9 17 20 27 11 9
20 24 20 32 0 8 4 15 8 15 5 0 26 26 48 58 21 31 42 59 47 60 4 2 7 7 7 12 0
5 16 32 35 61 19 30 35 59 35 65 0 7 7 14 15 18 8 3 15 12 15 21 0 8 5 15 10
15 6 0 10 6 10 14 0 8 6 21 14 28 7 8 17 25 21 38 4 14 10 27 14 30 21 17 171
323 171 349 0 6 5 11 10 11 6 0 10 6 10 13 1 6 9 30 20 52 11 22 19 45 20 51
0 7 7 25 15 40 8 16 15 37 15 47 0 9 4 17 9 17 5 0 12 18 16 40 4 22 11 40 15
40 5 0 12 20 16 45 3 25 10 45 15 45 4 0 11 20 15 45 3 25 10 47 14 50 5 3 11
28 15 55 4 27 11 52 15 55 5 3 12 27 16 53 3 26 10 52 14 57 5 6 12 38 16 73
3 34 10 62 15 62 4 0 11 36 15 80 3 44 10 80 14 80 4 0 13 48 19 108 6 59 15
143 20 187 12 103 12 725 1 830 -5 44 -14 123 -20 175 -5 52 -14 102 -19 111
-5 8 -12 50 -16 92 -4 42 -11 77 -15 77 -4 0 -10 27 -14 60 -4 33 -11 62 -15
65 -5 2 -12 29 -16 60 -3 30 -10 57 -15 60 -4 3 -11 28 -15 55 -4 27 -11 52
-15 55 -5 3 -12 26 -16 50 -3 25 -10 45 -14 45 -4 0 -11 20 -14 45 -4 25 -11
45 -16 45 -4 0 -11 18 -15 40 -4 22 -11 40 -16 40 -5 0 -9 8 -9 18 0 9 -6 29
-14 44 -8 15 -17 40 -21 57 -4 17 -10 31 -15 31 -4 0 -11 16 -14 35 -4 19 -11
35 -16 35 -4 0 -11 14 -15 30 -4 17 -11 30 -16 30 -5 0 -9 8 -9 18 0 19 -121
263 -140 282 -3 3 -16 28 -30 55 -14 28 -28 52 -32 53 -5 2 -8 10 -8 18 0 8
-7 17 -15 20 -8 4 -15 12 -15 18 0 7 -16 35 -35 62 -19 27 -35 55 -35 61 0 7
-4 13 -8 13 -4 0 -19 18 -32 40 -14 22 -28 40 -32 40 -5 0 -8 7 -8 15 0 9 -7
18 -15 21 -8 4 -15 12 -15 19 0 6 -10 24 -22 38 -39 43 -63 72 -118 143 -30
38 -65 79 -78 92 -13 12 -21 22 -18 22 14 0 -297 317 -370 376 -27 22 -62 53
-79 69 -50 47 -115 99 -136 109 -10 5 -19 12 -19 16 0 4 -26 24 -57 46 -32 21
-62 44 -66 51 -4 7 -15 13 -22 13 -8 0 -15 4 -15 10 0 5 -11 12 -24 16 -14 3
-27 12 -30 20 -3 8 -12 14 -21 14 -8 0 -15 4 -15 10 0 5 -11 12 -24 16 -14 3
-27 12 -30 20 -3 8 -12 14 -21 14 -8 0 -15 4 -15 9 0 5 -10 13 -22 17 -13 4
-25 9 -28 13 -7 8 -39 28 -70 43 -14 7 -31 18 -38 25 -7 7 -20 13 -28 13 -8 0
-14 4 -14 9 0 5 -13 12 -30 16 -16 4 -30 10 -30 15 0 5 -13 11 -30 15 -16 4
-30 10 -30 15 0 5 -13 11 -30 15 -16 4 -30 10 -30 15 0 5 -13 11 -30 15 -16 4
-30 10 -30 15 0 5 -13 11 -30 15 -16 4 -30 11 -30 16 0 5 -5 9 -11 9 -10 0
-89 32 -119 49 -9 5 -30 12 -48 16 -18 3 -32 10 -32 15 0 4 -18 11 -40 15 -22
4 -40 10 -40 15 0 5 -18 11 -40 15 -22 4 -40 10 -40 15 0 4 -20 11 -45 14 -25
4 -45 11 -45 16 0 4 -22 11 -50 15 -27 4 -52 11 -55 15 -3 5 -26 12 -50 16
-25 3 -48 10 -50 14 -3 5 -30 12 -60 15 -31 4 -58 11 -60 15 -3 5 -34 12 -70
15 -36 4 -67 11 -70 15 -3 5 -39 11 -80 15 -42 4 -77 11 -80 15 -3 5 -53 11
-112 15 -60 4 -114 12 -121 17 -12 11 -631 19 -809 11z m732 -504 c129 -12
278 -33 290 -40 6 -4 40 -10 77 -14 37 -3 70 -10 73 -15 3 -4 32 -11 65 -15
33 -4 60 -11 60 -15 0 -4 25 -11 55 -15 30 -3 55 -10 55 -15 0 -4 23 -11 50
-15 28 -4 50 -10 50 -15 0 -4 20 -11 45 -14 25 -4 45 -11 45 -17 0 -5 10 -9
23 -9 12 -1 40 -9 62 -20 22 -11 46 -19 53 -20 7 0 20 -4 30 -10 31 -17 111
-50 121 -50 6 0 11 -4 11 -10 0 -5 16 -12 35 -16 19 -3 35 -10 35 -15 0 -5 6
-9 13 -9 15 0 206 -98 217 -111 3 -4 15 -9 28 -13 12 -4 22 -11 22 -16 0 -4
12 -11 26 -14 24 -6 34 -13 67 -42 7 -6 23 -15 35 -18 12 -4 22 -12 22 -17 0
-5 5 -9 10 -9 12 0 73 -41 78 -52 2 -5 9 -8 16 -8 6 0 19 -9 29 -20 9 -11 23
-20 31 -20 8 0 16 -7 20 -15 3 -8 12 -15 21 -15 8 0 15 -3 15 -7 0 -5 17 -19
37 -33 20 -14 49 -36 65 -50 36 -33 88 -76 116 -98 27 -20 372 -361 372 -368
0 -2 8 -12 18 -23 9 -10 28 -33 42 -51 14 -18 32 -40 40 -49 8 -9 26 -33 40
-54 14 -20 28 -37 33 -37 4 0 7 -7 7 -15 0 -7 6 -18 13 -22 16 -10 57 -69 57
-82 0 -5 3 -11 8 -13 10 -5 52 -66 52 -77 0 -5 3 -11 8 -13 11 -5 52 -66 52
-78 0 -5 5 -10 10 -10 6 0 10 -6 10 -14 0 -8 6 -21 13 -28 6 -7 22 -33 35 -58
36 -69 56 -105 64 -110 3 -3 10 -18 13 -33 4 -15 11 -27 15 -27 5 0 11 -13 15
-30 4 -16 11 -30 16 -30 5 0 9 -8 9 -18 0 -10 6 -26 14 -37 7 -11 17 -35 21
-52 3 -18 10 -33 15 -33 4 0 11 -16 14 -35 4 -19 11 -35 16 -35 4 0 11 -18 15
-40 4 -22 11 -40 16 -40 5 0 9 -8 9 -17 0 -10 6 -30 14 -45 8 -15 17 -42 21
-60 4 -18 11 -37 15 -43 4 -5 11 -29 15 -52 4 -24 10 -45 15 -48 4 -3 11 -28
15 -55 4 -28 11 -50 15 -50 4 0 11 -27 15 -60 4 -33 11 -62 15 -65 4 -3 11
-36 15 -75 4 -38 11 -70 15 -70 4 0 11 -39 15 -87 4 -49 11 -92 15 -98 12 -14
33 -356 33 -515 -1 -169 -20 -470 -32 -491 -5 -8 -12 -54 -16 -102 -4 -48 -11
-87 -15 -87 -4 0 -11 -34 -15 -75 -4 -41 -10 -75 -15 -75 -4 0 -11 -27 -15
-60 -4 -33 -10 -60 -15 -60 -4 0 -10 -22 -14 -50 -4 -27 -11 -52 -15 -55 -5
-3 -12 -24 -16 -48 -4 -23 -11 -46 -15 -52 -4 -5 -11 -25 -15 -43 -4 -18 -13
-45 -21 -60 -8 -15 -14 -35 -14 -44 0 -9 -4 -19 -9 -22 -5 -3 -12 -22 -15 -41
-4 -19 -11 -35 -15 -35 -5 0 -12 -16 -15 -35 -4 -19 -11 -35 -16 -35 -4 0 -11
-14 -15 -31 -4 -17 -13 -42 -21 -57 -8 -15 -14 -33 -14 -39 0 -7 -4 -13 -9
-13 -5 0 -12 -14 -16 -30 -4 -17 -10 -30 -15 -30 -5 0 -11 -14 -15 -30 -4 -17
-10 -30 -15 -30 -5 0 -11 -14 -15 -30 -4 -17 -10 -30 -14 -30 -3 0 -18 -21
-31 -47 -14 -26 -31 -54 -37 -61 -7 -7 -13 -20 -13 -28 0 -8 -4 -14 -10 -14
-5 0 -10 -4 -10 -9 0 -13 -124 -202 -172 -264 -31 -39 -33 -42 -56 -72 -51
-67 -69 -89 -104 -129 -21 -22 -38 -44 -38 -48 0 -9 -369 -378 -378 -378 -4 0
-26 -17 -48 -38 -40 -35 -63 -54 -129 -104 -16 -12 -35 -27 -41 -33 -6 -5 -22
-17 -34 -25 -12 -8 -33 -23 -45 -32 -13 -10 -26 -18 -29 -18 -4 0 -12 -5 -19
-10 -48 -41 -62 -50 -73 -50 -7 0 -14 -3 -16 -7 -5 -12 -66 -53 -78 -53 -5 0
-10 -4 -10 -9 0 -5 -11 -12 -25 -15 -14 -4 -25 -10 -25 -15 0 -5 -13 -12 -30
-16 -16 -4 -30 -10 -30 -14 0 -5 -22 -19 -50 -32 -27 -13 -50 -27 -50 -31 0
-3 -13 -9 -30 -13 -16 -4 -30 -11 -30 -16 0 -5 -5 -9 -11 -9 -6 0 -25 -6 -42
-14 -91 -41 -127 -56 -136 -56 -6 0 -11 -4 -11 -9 0 -5 -16 -12 -35 -15 -19
-4 -35 -11 -35 -16 0 -4 -18 -11 -40 -15 -22 -4 -40 -10 -40 -15 0 -5 -18 -11
-40 -15 -22 -4 -42 -10 -45 -15 -3 -5 -23 -11 -45 -15 -22 -4 -42 -10 -45 -15
-3 -5 -24 -11 -48 -15 -23 -4 -46 -11 -52 -15 -5 -4 -29 -11 -52 -15 -24 -4
-45 -10 -48 -15 -3 -4 -32 -11 -65 -15 -33 -4 -62 -11 -65 -15 -3 -5 -39 -11
-80 -15 -41 -4 -75 -11 -75 -15 0 -4 -42 -11 -92 -15 -51 -4 -98 -11 -104 -16
-14 -11 -383 -27 -539 -23 -238 7 -405 16 -410 24 -3 4 -44 11 -92 15 -49 4
-92 11 -98 15 -5 4 -40 11 -77 15 -37 3 -70 10 -73 15 -3 4 -32 11 -65 15 -33
4 -60 11 -60 15 0 5 -25 12 -55 15 -30 4 -55 11 -55 15 0 4 -20 11 -45 14 -24
4 -47 11 -50 17 -4 5 -16 9 -28 9 -12 0 -35 7 -50 15 -15 8 -43 17 -62 21 -19
3 -35 10 -35 15 0 5 -8 9 -17 9 -10 0 -30 6 -45 14 -15 8 -40 17 -57 21 -17 4
-31 11 -31 15 0 5 -16 12 -35 16 -19 3 -35 10 -35 14 0 5 -14 11 -30 15 -17 4
-30 11 -30 16 0 5 -5 9 -11 9 -14 0 -102 42 -109 52 -3 3 -18 10 -33 13 -15 4
-27 10 -27 14 0 3 -25 17 -55 31 -30 14 -55 28 -55 33 0 4 -6 7 -13 7 -8 0
-24 9 -37 20 -13 11 -29 20 -37 20 -7 0 -13 4 -13 10 0 5 -11 12 -24 16 -14 3
-27 12 -30 20 -3 8 -12 14 -21 14 -8 0 -15 4 -15 10 0 5 -11 12 -24 16 -14 3
-27 12 -30 20 -3 8 -10 14 -16 14 -6 0 -17 6 -24 13 -8 6 -24 19 -36 27 -12 8
-32 23 -43 32 -32 25 -39 31 -72 56 -37 28 -87 69 -123 102 -15 14 -50 43 -77
65 -54 45 -235 223 -235 232 0 7 -4 11 -75 85 -25 25 -45 50 -45 55 0 5 -13
20 -30 33 -16 14 -29 30 -30 35 0 6 -14 24 -30 42 -17 18 -30 36 -30 42 0 5
-6 14 -13 18 -7 4 -30 34 -51 65 -22 32 -43 58 -47 58 -4 0 -10 11 -13 25 -4
14 -11 25 -16 25 -6 0 -10 7 -10 15 0 7 -6 18 -12 22 -7 4 -24 30 -38 58 -25
48 -34 63 -56 88 -6 7 -15 24 -19 37 -4 14 -10 27 -14 30 -3 3 -17 28 -31 55
-14 28 -28 52 -32 55 -3 3 -10 18 -13 33 -4 15 -11 27 -16 27 -5 0 -9 6 -9 13
-1 6 -9 30 -20 52 -11 22 -19 46 -20 53 0 6 -4 12 -10 12 -5 0 -10 6 -10 13 0
6 -6 24 -14 39 -8 15 -17 40 -21 57 -4 17 -11 31 -16 31 -5 0 -9 8 -9 18 0 9
-7 30 -15 45 -8 15 -17 43 -21 62 -3 19 -10 35 -14 35 -4 0 -11 20 -14 45 -4
25 -11 45 -15 45 -5 0 -11 22 -15 50 -4 27 -11 52 -15 55 -5 3 -12 28 -16 55
-4 28 -10 50 -15 50 -4 0 -11 28 -14 61 -4 34 -11 69 -16 78 -5 9 -14 50 -21
91 -13 84 -24 153 -39 238 -15 89 -23 630 -11 767 16 181 56 459 71 486 4 9
11 41 15 73 4 31 11 58 15 61 5 3 11 28 15 55 4 27 11 52 16 55 4 3 11 28 15
55 4 28 10 50 15 50 4 0 11 20 15 45 3 25 10 45 14 45 5 0 11 18 15 40 4 22
10 40 15 40 5 0 11 18 15 40 4 22 11 40 15 40 5 0 11 14 15 31 4 17 13 42 21
57 8 15 14 33 14 40 0 6 5 12 10 12 6 0 10 6 10 13 1 6 9 30 20 52 11 22 19
46 20 53 0 6 4 12 9 12 5 0 12 14 16 30 4 17 10 30 14 30 4 0 18 25 32 55 13
30 27 55 31 55 3 0 9 13 13 29 3 16 13 32 21 35 8 3 14 12 14 21 0 8 4 15 9
15 5 0 12 11 15 25 4 14 11 25 16 25 6 0 10 5 10 12 0 13 99 162 111 166 5 2
9 10 9 18 0 8 7 17 15 20 8 4 15 12 15 20 0 8 9 22 20 31 11 10 20 21 20 26 0
5 14 22 30 39 17 16 30 34 30 38 0 5 15 25 33 44 48 51 133 147 158 179 28 37
139 148 176 176 32 25 128 110 179 159 19 17 39 32 44 32 4 0 22 14 38 30 17
17 35 30 41 30 5 0 14 6 18 13 4 7 34 30 66 51 31 22 57 43 57 47 0 4 11 10
25 13 14 4 25 11 25 16 0 6 7 10 15 10 9 0 18 7 21 15 4 8 11 15 16 15 12 0
130 70 138 81 3 4 18 11 33 14 15 4 27 11 27 15 0 4 11 11 25 14 14 4 25 10
25 15 0 5 14 12 30 16 17 4 30 10 30 15 0 5 14 11 30 15 17 4 30 10 30 15 0 5
14 11 30 15 17 4 30 11 30 16 0 5 6 9 13 9 6 1 30 9 52 20 22 11 46 19 53 20
6 0 12 4 12 9 0 5 18 12 40 16 22 4 40 10 40 15 0 4 16 11 35 14 19 4 35 11
35 15 0 5 20 12 45 15 25 4 45 11 45 16 0 5 20 12 45 16 25 3 45 10 45 14 0 4
20 11 45 14 24 4 47 11 50 16 3 4 28 11 55 15 27 4 52 11 55 15 3 4 32 11 65
15 33 4 60 10 60 15 0 4 34 11 75 15 41 4 75 10 75 15 0 4 44 11 98 15 53 4
102 11 107 16 6 4 44 10 85 12 156 7 659 5 745 -4z"/>
<path d="M4943 5842 l-313 -2 -6 -24 c-3 -14 -12 -27 -20 -30 -8 -3 -14 -12
-14 -21 0 -8 -3 -15 -7 -15 -5 0 -19 -17 -33 -38 -28 -41 -32 -47 -60 -81 -11
-13 -20 -28 -20 -33 0 -5 -11 -19 -25 -32 -14 -13 -25 -27 -25 -32 0 -5 -9
-17 -20 -27 -11 -9 -20 -23 -20 -31 0 -8 -7 -16 -15 -20 -8 -3 -15 -12 -15
-21 0 -8 -3 -15 -7 -15 -5 0 -19 -17 -33 -38 -14 -20 -29 -42 -35 -49 -20 -25
-31 -39 -55 -75 -14 -21 -28 -38 -32 -38 -5 0 -8 -6 -8 -13 0 -7 -9 -20 -20
-30 -11 -9 -20 -23 -20 -31 0 -8 -7 -16 -15 -20 -8 -3 -15 -12 -15 -21 0 -8
-3 -15 -7 -15 -5 0 -19 -17 -33 -38 -28 -41 -32 -47 -60 -81 -11 -13 -20 -28
-20 -33 0 -5 -11 -19 -25 -32 -14 -13 -25 -27 -25 -32 0 -5 -9 -17 -20 -27
-11 -9 -20 -23 -20 -31 0 -8 -7 -16 -15 -20 -8 -3 -15 -12 -15 -21 0 -8 -3
-15 -7 -15 -5 0 -17 -13 -28 -30 -19 -28 -20 -29 -37 -10 -10 11 -18 24 -18
29 0 6 -6 14 -13 18 -7 4 -30 34 -51 66 -22 31 -43 57 -48 57 -4 0 -8 7 -8 15
0 8 -9 23 -20 32 -11 10 -20 23 -20 30 0 7 -4 13 -8 13 -4 0 -19 18 -32 40
-14 22 -28 40 -32 40 -5 0 -8 7 -8 15 0 7 -6 18 -13 22 -7 4 -30 34 -51 66
-22 31 -43 57 -48 57 -4 0 -8 7 -8 15 0 8 -9 23 -20 32 -11 10 -20 23 -20 30
0 7 -3 13 -7 13 -5 0 -19 18 -33 40 -13 22 -28 40 -32 40 -4 0 -8 7 -8 15 0 7
-6 18 -13 22 -7 4 -30 34 -51 66 -22 31 -43 57 -48 57 -4 0 -8 7 -8 15 0 8 -9
23 -20 32 -11 10 -20 23 -20 30 0 7 -4 13 -8 13 -4 0 -19 18 -32 40 -14 22
-28 40 -32 40 -5 0 -8 7 -8 15 0 7 -6 18 -13 22 -7 4 -23 25 -37 45 l-25 38
-303 0 -302 0 2 -1342 3 -1343 263 -3 262 -2 0 961 c0 960 0 962 20 938 28
-34 32 -40 60 -81 14 -21 28 -38 33 -38 4 0 7 -7 7 -15 0 -9 7 -18 15 -21 8
-4 15 -12 15 -19 0 -6 10 -24 23 -38 52 -60 66 -78 72 -96 3 -11 12 -22 20
-25 8 -3 15 -12 15 -21 0 -8 4 -15 8 -15 4 0 19 -18 32 -40 14 -22 28 -40 33
-40 4 0 7 -7 7 -15 0 -7 6 -18 13 -22 7 -4 30 -34 51 -65 22 -32 43 -58 48
-58 4 0 8 -7 8 -15 0 -8 9 -23 20 -32 11 -10 20 -22 20 -27 0 -5 11 -19 25
-32 14 -13 25 -27 25 -32 0 -5 9 -20 20 -33 28 -34 32 -40 60 -81 14 -21 28
-38 33 -38 4 0 7 -6 7 -13 0 -7 9 -20 20 -30 11 -9 20 -23 20 -31 0 -8 7 -16
15 -20 8 -3 15 -11 15 -17 0 -6 11 -22 25 -35 14 -13 25 -27 25 -33 0 -43 120
-59 153 -21 9 11 17 25 17 30 0 6 7 13 15 16 8 3 17 14 20 25 6 18 20 36 73
96 12 14 22 29 22 34 0 7 17 29 68 86 12 14 22 29 22 34 0 7 17 29 68 86 12
14 22 29 22 34 0 7 17 29 68 86 12 14 22 29 22 34 0 7 17 29 68 86 12 14 22
29 22 34 0 7 17 29 68 86 12 14 22 29 22 34 0 7 17 29 68 86 12 14 22 30 22
34 0 5 8 18 18 28 40 43 61 72 67 91 4 11 10 20 14 20 4 0 25 26 47 58 21 31
44 61 51 65 7 4 13 15 13 22 0 8 3 15 8 15 4 0 18 17 32 38 14 20 30 41 37 45
7 4 13 15 13 22 0 8 3 15 8 15 4 0 18 17 32 38 14 20 30 41 37 45 7 4 13 15
13 22 0 8 3 15 8 15 4 0 18 17 32 38 14 20 30 41 37 45 7 4 13 15 13 22 0 8 3
15 8 15 4 0 18 17 32 38 14 20 30 41 37 45 7 4 13 15 13 22 0 8 3 15 8 15 4 0
18 17 32 38 14 20 30 41 37 45 7 4 13 12 13 18 0 5 11 22 25 37 25 27 32 48
18 54 -5 2 -149 2 -320 0z"/>
<path d="M5653 5816 c-16 -17 -32 -39 -36 -49 -3 -9 -11 -17 -16 -17 -5 0 -13
-10 -16 -22 -4 -11 -17 -31 -29 -42 -13 -12 -25 -29 -29 -38 -3 -10 -11 -18
-16 -18 -5 0 -12 -9 -16 -20 -6 -19 -20 -37 -72 -97 -13 -14 -23 -32 -23 -39
0 -8 -4 -14 -9 -14 -11 0 -51 -62 -51 -79 0 -8 56 -11 194 -11 107 0 197 -4
200 -9 3 -5 26 -12 51 -15 25 -4 45 -11 45 -16 0 -4 11 -11 24 -14 27 -7 116
-87 116 -105 0 -6 7 -14 15 -17 8 -3 17 -26 21 -50 3 -24 10 -47 15 -50 12 -7
12 -81 0 -88 -4 -3 -11 -24 -15 -46 -3 -22 -11 -40 -16 -40 -6 0 -10 -5 -10
-11 0 -15 -42 -59 -57 -59 -7 0 -13 -4 -13 -9 0 -5 -13 -12 -30 -16 -16 -4
-30 -10 -30 -15 0 -22 -156 -33 -555 -39 -399 -6 -421 -7 -442 -26 -13 -11
-23 -25 -23 -32 0 -7 -3 -13 -7 -13 -5 0 -19 -17 -33 -38 -14 -20 -30 -41 -37
-45 -7 -4 -13 -15 -13 -22 0 -8 -4 -15 -8 -15 -4 0 -19 -18 -32 -40 -14 -22
-30 -38 -35 -36 -6 2 -12 -5 -12 -17 -1 -11 -6 -23 -10 -26 -5 -3 -20 -22 -33
-41 -26 -38 -38 -53 -57 -75 -7 -7 -13 -16 -13 -19 0 -3 252 -6 560 -6 335 0
567 -4 578 -10 9 -5 43 -12 75 -15 31 -4 57 -10 57 -15 0 -4 16 -11 35 -14 19
-4 35 -11 35 -15 0 -5 12 -12 26 -15 29 -8 37 -13 102 -76 72 -69 87 -106 87
-219 0 -66 -4 -96 -13 -99 -6 -2 -12 -9 -12 -16 0 -18 -98 -105 -126 -112 -13
-3 -24 -10 -24 -14 0 -5 -19 -11 -42 -15 -24 -4 -46 -13 -50 -19 -5 -8 -251
-12 -898 -14 l-892 -3 -24 -26 c-13 -14 -24 -29 -24 -32 0 -3 -13 -20 -28 -37
-15 -18 -34 -42 -42 -54 -8 -12 -22 -30 -30 -40 -8 -10 -22 -28 -30 -40 -8
-12 -23 -31 -32 -42 -10 -12 -18 -24 -18 -27 0 -3 -14 -22 -30 -41 -38 -44
-42 -49 -62 -81 -9 -14 -24 -34 -33 -43 -9 -8 -13 -20 -10 -26 8 -12 1869 -12
2055 0 144 10 280 28 295 40 6 4 29 11 52 15 24 4 45 11 49 16 3 5 12 9 20 9
22 0 102 38 152 71 24 16 45 29 48 29 11 0 134 128 134 139 0 6 3 11 8 11 4 0
19 21 32 48 14 26 28 49 33 50 4 2 7 11 7 20 0 10 7 30 15 45 8 16 17 51 21
78 4 27 11 52 15 55 12 7 12 261 0 268 -4 3 -11 25 -14 49 -3 23 -13 56 -21
72 -9 17 -16 36 -16 43 0 6 -4 12 -9 12 -5 0 -12 14 -16 30 -4 17 -10 30 -14
30 -4 0 -12 8 -17 19 -34 71 -132 161 -230 212 l-62 32 44 23 c52 28 56 31
134 107 33 32 60 65 60 72 0 7 3 15 8 17 10 5 52 92 52 111 0 8 6 17 13 20 16
5 18 354 1 365 -6 4 -14 28 -18 55 -4 26 -11 47 -17 47 -5 0 -9 5 -9 11 0 16
-42 101 -57 117 -7 7 -13 18 -13 23 0 4 -26 34 -57 65 -32 32 -57 60 -56 65 1
4 -9 10 -23 13 -14 4 -36 18 -48 31 -12 13 -34 27 -49 30 -15 4 -27 11 -27 16
0 4 -16 11 -35 15 -19 3 -35 10 -35 14 0 4 -20 11 -45 14 -25 4 -45 11 -45 16
0 5 -30 12 -67 16 -38 3 -70 10 -73 14 -3 4 -41 9 -86 12 -80 4 -82 4 -111
-26z"/>
</g>
</svg>
